# xmcd
#
# Track frame offsets:
#	150
#	20258
#	61593
#	85825
#	102923
#	122290
#	132898
#	147418
#	166130
#	188143
#	203283
#	228323
#	243785
#	259355
#	277153
#	296105
#	328050
#
# Disc length: 4673
#
# Revision: 1
# Processed by: cddbd v1.5.1PL0 Copyright (c) Steve Scherf et al.
# Submitted via: ExactAudioCopy v0.90b4
# Normalized: r0:DSETVAR1
#
DISCID=e9123f11
DTITLE=Various Artist - World Of Music - Blues Time
DYEAR=2003
DGENRE=Blues
TTITLE0=Buddy Guy - Damn Right I've Got The Blues
TTITLE1=Stevie Ray Vaughn - Tin Pan Alley
TTITLE2=Muddy Waters - Mannish Boy
TTITLE3=Fleetwood Mac - Need Your Love So Bad
TTITLE4=Robert Cray Band - Right Next Door
TTITLE5=JJ Cale - After Midnight
TTITLE6=Chicken Shack - I'd Rather Go Blind
TTITLE7=Gary Moore - Picture Of The Moon
TTITLE8=Keb' Mo' - More Than One Way Home
TTITLE9=Fabulous Thunderbirds - Tuff Enuff
TTITLE10=Rory Gallagher - Off The Handle
TTITLE11=Cuby and The Blizzards - Window Of My Eyes
TTITLE12=BB King - Ain't Nobody Home
TTITLE13=Jeff Healey - Badge
TTITLE14=Livin Blues - L.B. Boogie
TTITLE15=The Allman Brothers - Jessica
TTITLE16=John Mayall - Room To Move
EXTD=
EXTT0=
EXTT1=
EXTT2=
EXTT3=
EXTT4=
EXTT5=
EXTT6=
EXTT7=
EXTT8=
EXTT9=
EXTT10=
EXTT11=
EXTT12=
EXTT13=
EXTT14=
EXTT15=
EXTT16=
PLAYORDER=
